<?xml version="1.0" standalone="no"?><!DOCTYPE svg PUBLIC "-//W3C//DTD SVG 1.1//EN" "http://www.w3.org/Graphics/SVG/1.1/DTD/svg11.dtd"><svg t="1668739360107" class="icon" viewBox="0 0 1024 1024" version="1.1" xmlns="http://www.w3.org/2000/svg" p-id="46564" xmlns:xlink="http://www.w3.org/1999/xlink" width="32" height="32"><path d="M867.584 658.1248h-312.6784c-84.2752 0-152.8832-68.5568-152.8832-152.8832s68.5568-152.8832 152.8832-152.8832h312.6784c19.8144 0 35.84 16.0256 35.84 35.84v234.0864c0 19.8144-16.0256 35.84-35.84 35.84z m-312.6784-234.0864c-44.7488 0-81.2032 36.4032-81.2032 81.2032s36.4032 81.2032 81.2032 81.2032h276.8384V424.0384h-276.8384z" fill="#FFE8B2" p-id="46565"></path><path d="M566.272 505.8048m-45.6192 0a45.6192 45.6192 0 1 0 91.2384 0 45.6192 45.6192 0 1 0-91.2384 0Z" fill="#FFE8B2" p-id="46566"></path><path d="M699.648 935.168H329.8816c-112.3328 0-203.776-91.392-203.776-203.776V280.2176c0-112.3328 91.392-203.776 203.776-203.776h369.7664c112.3328 0 203.776 91.392 203.776 203.776v451.1744c0 112.384-91.392 203.776-203.776 203.776zM329.8816 148.1216c-72.8064 0-132.096 59.2384-132.096 132.096v451.1744c0 72.8576 59.2384 132.096 132.096 132.096h369.7664c72.8576 0 132.096-59.2384 132.096-132.096V280.2176c0-72.8064-59.2384-132.096-132.096-132.096H329.8816z" fill="#434A54" p-id="46567"></path></svg>