<?xml version="1.0" standalone="no"?><!DOCTYPE svg PUBLIC "-//W3C//DTD SVG 1.1//EN" "http://www.w3.org/Graphics/SVG/1.1/DTD/svg11.dtd"><svg t="1668739278950" class="icon" viewBox="0 0 1024 1024" version="1.1" xmlns="http://www.w3.org/2000/svg" p-id="23784" xmlns:xlink="http://www.w3.org/1999/xlink" width="32" height="32"><path d="M857.1392 571.3408v-36.1984a69.6832 69.6832 0 0 0 63.5904-43.52c10.752-26.4704 4.5056-56.4224-15.9232-76.3904l-312.4736-304.9984c-49.4592-48.2816-129.792-48.0768-178.9952 0.4096L104.1408 415.488a69.66784 69.66784 0 0 0-15.616 76.288c10.6496 26.0096 35.4816 42.9056 63.5392 43.3664v309.4016c0 45.312 36.864 82.176 82.176 82.176h176.1792c16.9472 0 30.72-13.7728 30.72-30.72v-221.1328c0-14.5408 11.8272-26.4192 26.4192-26.4192h79.9232a206.9504 206.9504 0 0 0-21.0432 91.136c0 114.8416 93.44 208.2816 208.2816 208.2816s208.2816-93.44 208.2816-208.2816c-0.0512-69.0176-33.9456-130.304-85.8624-168.2432z m-477.4912 103.5776v190.4128H234.1888c-11.4176 0-20.736-9.3184-20.736-20.736V504.4736c0-16.9472-13.7728-30.72-30.72-30.72h-29.5424c-4.7104 0-6.8608-2.8672-7.8336-5.2736-0.9728-2.4064-1.4336-5.9392 1.8944-9.216l309.248-304.7936c25.5488-25.1904 67.2768-25.2928 92.9792-0.2048l312.4736 304.9984c3.3792 3.2768 2.9184 6.8608 1.9456 9.2672-0.9728 2.4064-3.1232 5.2736-7.8336 5.2736h-29.5424c-16.9472 0-30.72 13.7728-30.72 30.72v36.0448a207.14496 207.14496 0 0 0-61.0304-9.1648c-56.9344 0-108.544 22.9888-146.176 60.1088-7.3728-2.8672-15.1552-4.4032-23.1936-4.4032h-97.792c-48.5376 0-87.9616 39.3728-87.9616 87.808z m355.0208 211.5584c-80.9472 0-146.8416-65.8944-146.8416-146.8416s65.8432-146.8416 146.8416-146.8416 146.8416 65.8432 146.8416 146.8416-65.8944 146.8416-146.8416 146.8416z" fill="#444444" p-id="23785"></path><path d="M715.776 831.1296c-7.3216 0-14.336-2.8672-19.6096-7.9872l-55.296-53.76a28.15488 28.15488 0 0 1-0.5632-39.8336 28.15488 28.15488 0 0 1 39.8336-0.5632l33.4848 32.5632 69.632-83.8144a28.18048 28.18048 0 1 1 43.3664 35.9936l-89.088 107.2128a28.16 28.16 0 0 1-20.1728 10.1376c-0.5632 0.0512-1.0752 0.0512-1.5872 0.0512zM589.7216 461.7728H427.776c-16.9472 0-30.72-13.7728-30.72-30.72s13.7728-30.72 30.72-30.72h161.9968c16.9472 0 30.72 13.7728 30.72 30.72s-13.7728 30.72-30.7712 30.72z" fill="#50DEFF" p-id="23786"></path></svg>