<?xml version="1.0" standalone="no"?><!DOCTYPE svg PUBLIC "-//W3C//DTD SVG 1.1//EN" "http://www.w3.org/Graphics/SVG/1.1/DTD/svg11.dtd"><svg t="1668739350240" class="icon" viewBox="0 0 1024 1024" version="1.1" xmlns="http://www.w3.org/2000/svg" p-id="46413" xmlns:xlink="http://www.w3.org/1999/xlink" width="32" height="32"><path d="M516.5568 824.7808c-209.1008 0-379.2384-170.1376-379.2384-379.2384 0-209.1008 170.1376-379.2384 379.2384-379.2384s379.2384 170.1376 379.2384 379.2384c0 209.152-170.1376 379.2384-379.2384 379.2384z m0-689.5104c-171.1104 0-310.3232 139.2128-310.3232 310.3232s139.2128 310.3232 310.3232 310.3232 310.3232-139.2128 310.3232-310.3232-139.2128-310.3232-310.3232-310.3232z" fill="#434A54" p-id="46414"></path><path d="M807.4752 951.7568H225.6384c-19.8144 0-35.84-16.0256-35.84-35.84s16.0256-35.84 35.84-35.84h581.8368c19.8144 0 35.84 16.0256 35.84 35.84s-16.0256 35.84-35.84 35.84z" fill="#7BD3FF" p-id="46415"></path></svg>