<?xml version="1.0" standalone="no"?><!DOCTYPE svg PUBLIC "-//W3C//DTD SVG 1.1//EN" "http://www.w3.org/Graphics/SVG/1.1/DTD/svg11.dtd"><svg t="1668739294634" class="icon" viewBox="0 0 1024 1024" version="1.1" xmlns="http://www.w3.org/2000/svg" p-id="23941" xmlns:xlink="http://www.w3.org/1999/xlink" width="32" height="32"><path d="M878.4896 596.9408a404.25472 404.25472 0 0 0 12.0832-98.048c0-221.7984-180.4288-402.176-402.176-402.176S86.1696 277.0944 86.1696 498.8928s180.4288 402.176 402.176 402.176c47.7696 0 94.3616-8.3456 138.7008-24.6272 32.9216 28.2112 75.6224 45.2608 122.2144 45.2608 103.7824 0 188.16-84.4288 188.16-188.16 0.0512-53.76-22.6304-102.2976-58.9312-136.6016zM147.6096 498.8928c0-187.904 152.8832-340.736 340.736-340.736s340.736 152.8832 340.736 340.736c0 20.7872-1.8944 41.472-5.632 61.7472a186.92608 186.92608 0 0 0-74.24-15.3088c-103.7824 0-188.16 84.4288-188.16 188.16 0 33.4336 8.8064 64.8704 24.1664 92.1088a340.27008 340.27008 0 0 1-96.9216 13.9776c-187.8016 0.0512-340.6848-152.7808-340.6848-340.6848z m601.6512 361.3696c-69.888 0-126.72-56.8832-126.72-126.72s56.8832-126.72 126.72-126.72 126.72 56.8832 126.72 126.72-56.832 126.72-126.72 126.72z" fill="#444444" p-id="23942"></path><path d="M586.6496 530.7392H510.1568v-43.52h76.4928c16.9472 0 30.72-13.7728 30.72-30.72s-13.7728-30.72-30.72-30.72h-36.352l47.7184-48.7424c11.8784-12.1344 11.6736-31.5904-0.4608-43.4176a30.73536 30.73536 0 0 0-43.4688 0.4608l-74.752 76.288-74.752-76.288a30.73536 30.73536 0 0 0-43.4688-0.4608c-12.1344 11.8784-12.3392 31.3344-0.4608 43.4176l47.7184 48.7424h-36.352c-16.9472 0-30.72 13.7728-30.72 30.72s13.7728 30.72 30.72 30.72H448.512v43.52H372.224c-16.9472 0-30.72 13.7728-30.72 30.72s13.7728 30.72 30.72 30.72h76.4928v76.4928c0 16.9472 13.7728 30.72 30.72 30.72s30.72-13.7728 30.72-30.72v-76.4928h76.4928c16.9472 0 30.72-13.7728 30.72-30.72s-13.7216-30.72-30.72-30.72zM732.5184 817.8688c-7.3216 0-14.336-2.8672-19.6096-7.9872l-49.0496-47.6672a28.15488 28.15488 0 0 1-0.5632-39.8336 28.15488 28.15488 0 0 1 39.8336-0.5632l27.2384 26.4704 59.5456-71.68a28.18048 28.18048 0 1 1 43.3664 35.9936l-79.0016 95.0784a28.16 28.16 0 0 1-20.1728 10.1376c-0.5632 0-1.0752 0.0512-1.5872 0.0512z" fill="#50DEFF" p-id="23943"></path></svg>