<?xml version="1.0" standalone="no"?><!DOCTYPE svg PUBLIC "-//W3C//DTD SVG 1.1//EN" "http://www.w3.org/Graphics/SVG/1.1/DTD/svg11.dtd"><svg t="1668581993728" class="icon" viewBox="0 0 1024 1024" version="1.1" xmlns="http://www.w3.org/2000/svg" p-id="9386" xmlns:xlink="http://www.w3.org/1999/xlink" width="32" height="32"><path d="M617.411765 11.023059v150.588235a60.235294 60.235294 0 1 0 120.470588 0v-150.588235h60.235294a60.235294 60.235294 0 0 1 60.235294 60.235294v271.058823a60.235294 60.235294 0 0 1-60.235294 60.235295H225.882353a60.235294 60.235294 0 0 1-60.235294-60.235295v-271.058823a60.235294 60.235294 0 0 1 60.235294-60.235294h391.529412z" fill="#7CFDE0" p-id="9387"></path><path d="M617.411765 662.678588v281.99153a60.235294 60.235294 0 0 1-60.235294 60.235294h-60.235295a60.235294 60.235294 0 0 1-60.235294-60.235294v-281.99153H195.764706a90.352941 90.352941 0 0 1-90.352941-90.352941v-260.126118h813.17647v260.126118a90.352941 90.352941 0 0 1-90.352941 90.352941h-210.823529z" fill="#15CEBF" p-id="9388"></path></svg>