<?xml version="1.0" standalone="no"?><!DOCTYPE svg PUBLIC "-//W3C//DTD SVG 1.1//EN" "http://www.w3.org/Graphics/SVG/1.1/DTD/svg11.dtd"><svg t="1668583079269" class="icon" viewBox="0 0 1024 1024" version="1.1" xmlns="http://www.w3.org/2000/svg" p-id="2046" xmlns:xlink="http://www.w3.org/1999/xlink" width="32" height="32"><path d="M512 960c-23.467 0-46.933-6.4-66.133-21.333-147.2-100.267-396.8-332.8-390.4-561.067 4.266-142.933 128-264.533 270.933-264.533 68.267 0 134.4 25.6 183.467 72.533 61.866-57.6 145.066-83.2 230.4-68.267 121.6 19.2 215.466 121.6 226.133 243.2 23.467 290.134-345.6 550.4-388.267 578.134C558.933 951.467 535.467 960 512 960zM326.4 177.067c-108.8 0-204.8 91.733-206.933 202.666-6.4 200.534 234.666 418.134 362.666 505.6 19.2 12.8 42.667 12.8 59.734 0 140.8-96 377.6-313.6 360.533-522.666-6.4-91.734-78.933-168.534-170.667-183.467-68.266-10.667-132.266 10.667-181.333 57.6-21.333 21.333-55.467 21.333-76.8 0-38.4-38.4-91.733-59.733-147.2-59.733 2.133 0 2.133 0 0 0z" fill="#543E3E" p-id="2047"></path><path d="M576 426.667c-23.467-4.267-44.8 4.266-59.733 19.2-2.134 2.133-6.4 2.133-8.534 0-12.8-12.8-29.866-19.2-46.933-19.2-36.267 0-66.133 29.866-68.267 66.133C390.4 554.667 460.8 618.667 499.2 644.267c8.533 6.4 19.2 6.4 27.733 0 38.4-25.6 110.934-89.6 106.667-155.734-4.267-32-27.733-57.6-57.6-61.866z" fill="#FFBB12" p-id="2048"></path></svg>