<?xml version="1.0" standalone="no"?><!DOCTYPE svg PUBLIC "-//W3C//DTD SVG 1.1//EN" "http://www.w3.org/Graphics/SVG/1.1/DTD/svg11.dtd"><svg t="1668740974757" class="icon" viewBox="0 0 1024 1024" version="1.1" xmlns="http://www.w3.org/2000/svg" p-id="68769" xmlns:xlink="http://www.w3.org/1999/xlink" width="32" height="32"><path d="M516.9152 93.7984c-232.0896 0-420.864 188.8256-420.864 420.864s188.8256 420.864 420.864 420.864 420.864-188.8256 420.864-420.864-188.7744-420.864-420.864-420.864z m0 800.768c-209.5104 0-379.904-170.4448-379.904-379.904s170.4448-379.904 379.904-379.904c209.5104 0 379.904 170.4448 379.904 379.904s-170.4448 379.904-379.904 379.904z" fill="#00A0E9" p-id="68770"></path><path d="M653.824 539.8016c-13.824-13.7728-31.488-13.824-45.4656-0.256-5.7856 5.5808-10.7008 12.2368-17.1008 16.9472-4.7616 3.5328-11.264 6.6048-16.9472 6.5024-7.7824-0.1024-15.9232-2.5088-23.1936-5.5296-23.7056-9.8304-42.7008-26.2656-58.624-45.9776-12.6464-15.6672-23.0912-32.6144-25.3952-53.3504-0.8192-7.4752 0.9216-13.9776 6.4-19.3536 5.2224-5.12 10.496-10.1888 15.6672-15.36 15.5648-15.36 15.7184-32.6656 0.3072-48.0768a45229.6192 45229.6192 0 0 0-85.8624-85.8112c-2.2528-2.2528-4.5568-4.4032-7.1168-6.2976-11.4176-8.448-25.5488-8.2432-36.3008 1.1264-7.168 6.1952-13.6192 13.2608-20.48 19.8144-23.6032 22.6304-32.1024 51.2-31.7952 82.7904 0.3072 35.4816 10.4448 68.864 25.9072 100.4032 42.0352 85.6576 105.472 151.3984 188.2624 198.3488 35.6864 20.224 73.6256 34.5088 128.1024 37.0176 21.7088 0.6656 52.7872-7.424 77.312-33.6384 4.6592-4.9664 9.6768-9.6256 14.4384-14.4896 14.848-15.2064 14.7968-31.6416-0.3072-46.7968-29.184-29.44-58.4704-58.7776-87.808-88.0128z" fill="#00A0E9" p-id="68771"></path></svg>