<?xml version="1.0" standalone="no"?><!DOCTYPE svg PUBLIC "-//W3C//DTD SVG 1.1//EN" "http://www.w3.org/Graphics/SVG/1.1/DTD/svg11.dtd"><svg t="1668740936037" class="icon" viewBox="0 0 1024 1024" version="1.1" xmlns="http://www.w3.org/2000/svg" p-id="46714" xmlns:xlink="http://www.w3.org/1999/xlink" width="32" height="32"><path d="M518.8608 920.9344c-20.8896 0-41.6768-8.0384-57.1392-24.0128l-108.544-112.128c-1.4848-1.4848-3.4816-2.3552-5.632-2.3552H215.7568c-88.064 0-159.744-71.68-159.744-159.744V279.552c0-88.064 71.68-159.744 159.744-159.744h598.0672c88.064 0 159.744 71.68 159.744 159.744v343.0912c0 88.064-71.68 159.744-159.744 159.744h-111.3088c-1.9968 0-3.84 0.7168-5.3248 2.0992l-124.3136 115.4048c-15.1552 14.08-34.6112 21.0432-54.016 21.0432zM215.7568 191.488c-48.5376 0-88.064 39.5264-88.064 88.064v343.0912c0 48.5376 39.5264 88.064 88.064 88.064h131.7888c21.4016 0 42.24 8.8064 57.1392 24.2176l108.544 112.128c2.9184 3.0208 7.8336 3.1744 10.9056 0.3072l124.3136-115.4048c14.7456-13.6704 33.9456-21.248 54.0672-21.248h111.3088c48.5376 0 88.064-39.5264 88.064-88.064V279.552c0-48.5376-39.5264-88.064-88.064-88.064H215.7568z" fill="#434A54" p-id="46715"></path><path d="M696.064 388.7104H342.9888c-19.8144 0-35.84-16.0256-35.84-35.84s16.0256-35.84 35.84-35.84h353.0752c19.8144 0 35.84 16.0256 35.84 35.84s-16.0256 35.84-35.84 35.84zM696.064 600.4736H342.9888c-19.8144 0-35.84-16.0256-35.84-35.84s16.0256-35.84 35.84-35.84h353.0752c19.8144 0 35.84 16.0256 35.84 35.84s-16.0256 35.84-35.84 35.84z" fill="#C9C9F4" p-id="46716"></path></svg>