<?xml version="1.0" standalone="no"?><!DOCTYPE svg PUBLIC "-//W3C//DTD SVG 1.1//EN" "http://www.w3.org/Graphics/SVG/1.1/DTD/svg11.dtd"><svg t="1668582111664" class="icon" viewBox="0 0 1024 1024" version="1.1" xmlns="http://www.w3.org/2000/svg" p-id="16445" xmlns:xlink="http://www.w3.org/1999/xlink" width="32" height="32"><path d="M215.578947 0h592.842106c59.284211 0 107.789474 48.505263 107.789473 107.789474v808.421052c0 59.284211-48.505263 107.789474-107.789473 107.789474H215.578947c-59.284211 0-107.789474-48.505263-107.789473-107.789474V107.789474c0-59.284211 48.505263-107.789474 107.789473-107.789474z" fill="#2F77F1" p-id="16446"></path><path d="M754.526316 296.421053H269.473684c-29.642105 0-53.894737-24.252632-53.894737-53.894737v-53.894737c0-29.642105 24.252632-53.894737 53.894737-53.894737h485.052632c29.642105 0 53.894737 24.252632 53.894737 53.894737v53.894737c0 29.642105-24.252632 53.894737-53.894737 53.894737zM269.473684 565.894737h53.894737c14.821053 0 26.947368 12.126316 26.947368 26.947368s-12.126316 26.947368-26.947368 26.947369h-53.894737c-14.821053 0-26.947368-12.126316-26.947368-26.947369s12.126316-26.947368 26.947368-26.947368z m0 134.736842h53.894737c14.821053 0 26.947368 12.126316 26.947368 26.947368s-12.126316 26.947368-26.947368 26.947369h-53.894737c-14.821053 0-26.947368-12.126316-26.947368-26.947369s12.126316-26.947368 26.947368-26.947368z m0 134.736842h53.894737c14.821053 0 26.947368 12.126316 26.947368 26.947368s-12.126316 26.947368-26.947368 26.947369h-53.894737c-14.821053 0-26.947368-12.126316-26.947368-26.947369s12.126316-26.947368 26.947368-26.947368z m215.578948-269.473684h53.894736c14.821053 0 26.947368 12.126316 26.947369 26.947368s-12.126316 26.947368-26.947369 26.947369h-53.894736c-14.821053 0-26.947368-12.126316-26.947369-26.947369s12.126316-26.947368 26.947369-26.947368z m0 134.736842h53.894736c14.821053 0 26.947368 12.126316 26.947369 26.947368s-12.126316 26.947368-26.947369 26.947369h-53.894736c-14.821053 0-26.947368-12.126316-26.947369-26.947369s12.126316-26.947368 26.947369-26.947368z m0 134.736842h53.894736c14.821053 0 26.947368 12.126316 26.947369 26.947368s-12.126316 26.947368-26.947369 26.947369h-53.894736c-14.821053 0-26.947368-12.126316-26.947369-26.947369s12.126316-26.947368 26.947369-26.947368z m215.578947-269.473684h53.894737c14.821053 0 26.947368 12.126316 26.947368 26.947368s-12.126316 26.947368-26.947368 26.947369h-53.894737c-14.821053 0-26.947368-12.126316-26.947368-26.947369s12.126316-26.947368 26.947368-26.947368z m0 134.736842h53.894737c14.821053 0 26.947368 12.126316 26.947368 26.947368s-12.126316 26.947368-26.947368 26.947369h-53.894737c-14.821053 0-26.947368-12.126316-26.947368-26.947369s12.126316-26.947368 26.947368-26.947368z m0 134.736842h53.894737c14.821053 0 26.947368 12.126316 26.947368 26.947368s-12.126316 26.947368-26.947368 26.947369h-53.894737c-14.821053 0-26.947368-12.126316-26.947368-26.947369s12.126316-26.947368 26.947368-26.947368z" fill="#AFFCFE" p-id="16447"></path></svg>